HIERARCHY
ROOT Hips
{
	OFFSET 0.000000 0.000000 0.000000 
	CHANNELS 6 Xposition Yposition Zposition Yrotation Zrotation Xrotation 
	JOINT Lumbar
	{
		OFFSET 0.000000 0.000000 0.000000 
		CHANNELS 3 Zrotation Xrotation Yrotation
		JOINT Neck
		{
			OFFSET 0.000000 0.445665 0.000000 
			CHANNELS 3 Zrotation Xrotation Yrotation
			End Site
			{
				OFFSET 0.000000 0.227535 0.000000 
			}
		}
		JOINT RightShoulder
		{
			OFFSET 0.019635 0.377685 0.194865 
			CHANNELS 3 Zrotation Xrotation Yrotation
			JOINT RightElbow
			{
				OFFSET 0.000000 -0.243375 0.000000 
				CHANNELS 2 Zrotation Yrotation
				JOINT RightWrist
				{
					OFFSET 0.000000 -0.264825 0.000000 
					CHANNELS 2 Zrotation Xrotation
					End Site
					{
						OFFSET 0.006600 -0.176220 0.000990 
					}
				}
			}
		}
		JOINT LeftShoulder
		{
			OFFSET 0.019635 0.377685 -0.194865 
			CHANNELS 3 Zrotation Xrotation Yrotation
			JOINT LeftElbow
			{
				OFFSET 0.000000 -0.243375 0.000000 
				CHANNELS 2 Zrotation Yrotation
				JOINT LeftWrist
				{
					OFFSET 0.000000 -0.264825 0.000000 
					CHANNELS 2 Zrotation Xrotation
					End Site
					{
						OFFSET 0.006600 -0.176220 -0.000990 
					}
				}
			}
		}
	}
	JOINT RightHip
	{
		OFFSET 0.052140 -0.069960 0.075570 
		CHANNELS 3 Zrotation Xrotation Yrotation
		JOINT RightKnee
		{
			OFFSET 0.000000 -0.402270 0.000000 
			CHANNELS 1 Zrotation
			JOINT RightAnkle
			{
				OFFSET 0.000000 -0.404085 0.000000 
				CHANNELS 3 Zrotation Xrotation Yrotation
				End Site
				{
					OFFSET 0.204105 -0.089430 0.008415 
				}
			}
		}
	}
	JOINT LeftHip
	{
		OFFSET 0.052140 -0.069960 -0.075570 
		CHANNELS 3 Zrotation Xrotation Yrotation
		JOINT LeftKnee
		{
			OFFSET 0.000000 -0.402270 0.000000 
			CHANNELS 1 Zrotation
			JOINT LeftAnkle
			{
				OFFSET 0.000000 -0.404085 0.000000 
				CHANNELS 3 Zrotation Xrotation Yrotation
				End Site
				{
					OFFSET 0.204105 -0.089430 -0.008415 
				}
			}
		}
	}
}
MOTION
Frames: 11
Frame Time: 0.02
0.00223 -0.00019 -0.00271 -50.47546 -25.78492 3.08038 39.83631 1.21586 -9.32577 -15.40932 -4.42235 -1.1776 -27.20594 -10.79019 0.85008 46.04372 84.13313 0.06808 0.50853 -22.39173 12.44421 -3.92652 30.18623 -82.33634 -2.31309 -5.89899 41.6296 -0.31627 -7.46864 -19.34843 -8.64132 -1.88463 -3.23178 36.55683 5.54678 6.52765 -27.72393 -9.29461 4.40226 4.53775
6e-05 -0.0005 -0.00323 -50.54447 -25.83984 3.14415 39.2558 1.19716 -9.39992 -15.47705 -4.89267 -1.20173 -27.61431 -10.86668 0.94187 46.24254 84.11227 0.06888 0.51564 -22.04163 12.4168 -4.21978 29.70485 -82.33376 -2.28526 -5.699 41.77202 -0.31191 -8.01415 -19.35405 -8.65235 -1.84455 -3.21517 36.6544 5.68966 6.96914 -27.71137 -9.24564 4.37488 4.51856
-0.00212 -0.0008 -0.00375 -50.61301 -25.89479 3.20777 38.67643 1.1786 -9.47421 -15.54466 -5.36226 -1.22581 -28.02195 -10.94338 1.03368 46.44109 84.09175 0.06986 0.52276 -21.69193 12.38953 -4.51295 29.2249 -82.3312 -2.25743 -5.49929 41.91433 -0.30752 -8.55805 -19.3598 -8.66334 -1.80459 -3.19862 36.75194 5.83227 7.40939 -27.69888 -9.19679 4.34755 4.49942
-0.00429 -0.00111 -0.00426 -50.68179 -25.94956 3.27134 38.0976 1.15997 -9.54819 -15.61221 -5.83125 -1.24987 -28.42916 -11.01971 1.12525 46.63937 84.07098 0.07067 0.52986 -21.34279 12.3622 -4.80544 28.74496 -82.32863 -2.22968 -5.29987 42.05637 -0.30317 -9.1019 -19.36542 -8.67433 -1.76463 -3.18206 36.84924 5.97474 7.84958 -27.68637 -9.14796 4.32025 4.48028
-0.00646 -0.00141 -0.00479 -50.75108 -26.00425 3.33505 37.51791 1.14116 -9.6219 -15.67984 -6.30068 -1.27398 -28.83687 -11.09564 1.21665 46.83772 84.04981 0.07126 0.53693 -20.99351 12.33475 -5.09769 28.26371 -82.32604 -2.20194 -5.10027 42.19839 -0.29885 -9.64731 -19.37086 -8.68535 -1.72456 -3.16546 36.94647 6.11741 8.29088 -27.6738 -9.09906 4.29291 4.46112
-0.00863 -0.00172 -0.0053 -50.81802 -26.05976 3.3985 36.93927 1.12313 -9.69739 -15.74738 -6.77057 -1.29801 -29.24432 -11.17395 1.30927 47.03665 84.03067 0.0731 0.54416 -20.64294 12.30786 -5.39275 27.7866 -82.32355 -2.17392 -4.90037 42.34129 -0.29431 -10.18802 -19.37727 -8.69629 -1.68483 -3.149 37.04468 6.25988 8.72883 -27.66149 -9.05032 4.26559 4.44202
-0.01081 -0.00203 -0.00583 -50.88974 -26.11349 3.46236 36.35911 1.10355 -9.76923 -15.81506 -7.23905 -1.32217 -29.6519 -11.24741 1.39945 47.23436 84.00738 0.07231 0.55106 -20.29537 12.2798 -5.6819 27.30143 -82.32085 -2.14655 -4.70133 42.48226 -0.29024 -10.73759 -19.38172 -8.7074 -1.64445 -3.13227 37.14074 6.40262 9.17325 -27.64866 -9.00128 4.23827 4.4228
-0.01298 -0.00233 -0.00634 -50.95684 -26.16899 3.52591 35.78042 1.08542 -9.84438 -15.88256 -7.70877 -1.3462 -30.05926 -11.32532 1.49169 47.43289 83.98808 0.07414 0.55826 -19.945 12.25293 -5.97638 26.82417 -82.31836 -2.11847 -4.50141 42.62504 -0.28573 -11.27897 -19.38795 -8.71831 -1.6047 -3.1158 37.23892 6.54504 9.61134 -27.63631 -8.95255 4.21096 4.40371
-0.01514 -0.00264 -0.00682 -51.01913 -26.22622 3.58886 35.2029 1.06899 -9.92392 -15.95009 -8.18058 -1.37011 -30.46703 -11.40886 1.58729 47.63379 83.97303 0.07843 0.56585 -19.59106 12.22708 -6.27813 26.35443 -82.31608 -2.08991 -4.30062 42.77002 -0.28066 -11.8107 -19.39649 -8.72913 -1.56558 -3.09959 37.33926 6.68745 10.04335 -27.62452 -8.90404 4.1836 4.38472
-0.01736 -0.00295 -0.00747 -51.11158 -26.27216 3.65457 34.61671 1.04253 -9.97923 -16.01821 -8.64212 -1.39483 -30.8745 -11.46061 1.66607 47.82516 83.93165 0.06634 0.57127 -19.2572 12.19409 -6.54035 25.83497 -82.31242 -2.06528 -4.10547 42.90231 -0.27875 -12.39906 -19.39214 -8.74093 -1.52238 -3.08172 37.42587 6.8311 10.51532 -27.60942 -8.85378 4.15631 4.36498
-0.01946 -0.00324 -0.00776 -51.13882 -26.34276 3.71492 34.05019 1.03741 -10.08497 -16.08459 -9.12408 -1.41777 -31.28121 -11.57897 1.77873 48.03399 83.947 0.09021 0.58121 -18.88137 12.17694 -6.88439 25.42459 -82.31179 -2.03163 -3.89804 43.06135 -0.2702 -12.86715 -19.41473 -8.75038 -1.48808 -3.06747 37.54223 6.97134 10.89975 -27.60137 -8.80752 4.12905 4.34691
